<svg width="150" height="100" xmlns="http://www.w3.org/2000/svg">
 <title>red pin</title>
 <defs>
  <filter x="-50%" y="-50%" height="200%" width="200%" id="svg_3_blur">
   <feGaussianBlur stdDeviation="2"/>
  </filter>
 </defs>
 <g>
  <title>background</title>
  <rect fill="none" id="canvas_background" height="402" width="582" y="-1" x="-1"/>
 </g>
 <g>
  <title>Layer 1</title>
  <path stroke="null" fill="#cc0000" d="m52.58582,86.634937c-1.132398,-5.558877 -3.128979,-10.185043 -5.54728,-14.472359c-1.793767,-3.180214 -3.871758,-6.11564 -5.794434,-9.199749c-0.641827,-1.029487 -1.195728,-2.117105 -1.812462,-3.18556c-1.233177,-2.136414 -2.233015,-4.613458 -2.169481,-7.826594c0.062074,-3.139407 0.970043,-5.657727 2.279343,-7.716761c2.153415,-3.386591 5.760463,-6.163225 10.600249,-6.892919c3.957114,-0.596608 7.667188,0.411351 10.298177,1.949784c2.149822,1.257189 3.814856,2.936506 5.08028,4.915648c1.320926,2.065694 2.230561,4.506107 2.306801,7.689301c0.039146,1.630857 -0.227844,3.141131 -0.604084,4.393879c-0.380622,1.268026 -0.992886,2.327981 -1.537674,3.460174c-1.063578,2.210084 -2.396774,4.235145 -3.734934,6.261228c-3.985478,6.035309 -7.726226,12.190095 -9.364502,20.623929z" stroke-width="37" stroke-miterlimit="10" fill-rule="evenodd" clip-rule="evenodd" id="svg_2"/>
  <circle stroke="null" r="6.833018" cy="52.547039" cx="52.546542" fill-rule="evenodd" fill="#ffffff" clip-rule="evenodd" id="svg_4"/>
 </g>
</svg>