<svg width="2481" height="2073" xmlns="http://www.w3.org/2000/svg">
 <title>pin</title>
 <defs>
  <filter x="-50%" y="-50%" height="200%" width="200%" id="svg_3_blur">
   <feGaussianBlur stdDeviation="2"/>
  </filter>
 </defs>
 <g>
  <title>background</title>
  <rect fill="none" id="canvas_background" height="402" width="582" y="-1" x="-1"/>
 </g>
 <g>
  <title>Layer 1</title>
  <path stroke="null" d="m52.58582,86.634937c-1.132398,-5.558877 -3.128979,-10.185043 -5.54728,-14.472359c-1.793767,-3.180214 -3.871758,-6.11564 -5.794434,-9.199749c-0.641827,-1.029487 -1.195728,-2.117105 -1.812462,-3.18556c-1.233177,-2.136414 -2.233015,-4.613458 -2.169481,-7.826594c0.062074,-3.139407 0.970043,-5.657727 2.279343,-7.716761c2.153415,-3.386591 5.760463,-6.163225 10.600249,-6.892919c3.957114,-0.596608 7.667188,0.411351 10.298177,1.949784c2.149822,1.257189 3.814856,2.936506 5.08028,4.915648c1.320926,2.065694 2.230561,4.506107 2.306801,7.689301c0.039146,1.630857 -0.227844,3.141131 -0.604084,4.393879c-0.380622,1.268026 -0.992886,2.327981 -1.537674,3.460174c-1.063578,2.210084 -2.396774,4.235145 -3.734934,6.261228c-3.985478,6.035309 -7.726226,12.190095 -9.364502,20.623929z" stroke-width="37" stroke-miterlimit="10" fill-rule="evenodd" clip-rule="evenodd" id="svg_2"/>
  <path fill="#000000" stroke="null" filter="url(#svg_3_blur)" d="m53.379539,87.047065c4.469298,-4.104771 7.176268,-8.013931 9.140086,-11.902716c1.456554,-2.884923 2.395555,-5.745051 3.632043,-8.627935c0.412957,-0.962431 0.968206,-1.921127 1.443989,-2.896804c0.951566,-1.951017 2.46755,-4.012061 5.740296,-6.048316c3.197695,-1.989728 6.586582,-3.183973 9.902118,-3.895134c5.452654,-1.169658 11.691824,-1.266682 17.068064,0.529542c4.396148,1.468574 6.950983,3.85326 7.93922,6.074256c0.807575,1.814836 0.727765,3.673818 -0.03532,5.538911c-0.796705,1.946602 -2.362606,3.941765 -5.471326,6.024203c-1.592739,1.067032 -3.358671,1.913322 -4.972117,2.542601c-1.63315,0.637094 -3.280556,1.032051 -4.935441,1.505119c-3.230296,0.923376 -6.534623,1.601225 -9.844728,2.27805c-9.859328,2.015198 -19.603535,4.221937 -29.606887,8.878221l0,0z" fill-rule="evenodd" clip-rule="evenodd" opacity="0.25" id="svg_3"/>
  <circle stroke="null" r="6.833018" cy="52.547039" cx="52.546542" fill-rule="evenodd" fill="#ffffff" clip-rule="evenodd" id="svg_4"/>
 </g>
</svg>