<svg width="2481" height="2073" xmlns="http://www.w3.org/2000/svg">
 <title>orange pin</title>
 <defs>
  <filter x="-50%" y="-50%" height="200%" width="200%" id="svg_3_blur">
   <feGaussianBlur stdDeviation="7.7"/>
  </filter>
 </defs>
 <g>
  <title>background</title>
  <rect fill="none" id="canvas_background" height="402" width="582" y="-1" x="-1"/>
 </g>
 <g>
  <title>Layer 1</title>
  <path stroke="null" d="m357.553318,664.589902c-14.133767,-69.381858 -39.05364,-127.122281 -69.237104,-180.633445c-22.388489,-39.693119 -48.324465,-76.330958 -72.321909,-114.824559c-8.010817,-12.849306 -14.924202,-26.424168 -22.621832,-39.759836c-15.391616,-26.665167 -27.870865,-57.581826 -27.077881,-97.685847c0.774758,-39.183795 12.107369,-70.61563 28.449104,-96.314985c26.877352,-42.268965 71.8979,-76.924882 132.30458,-86.032392c49.38981,-7.446422 95.696255,5.134183 128.534342,24.335782c26.832511,15.691311 47.614251,36.651332 63.408351,61.353537c16.486836,25.782483 27.840236,56.241943 28.791813,95.972247c0.488586,20.355174 -2.843788,39.205314 -7.539735,54.841199c-4.750644,15.826571 -12.392476,29.056157 -19.192123,43.187365c-13.274807,27.58466 -29.914786,52.859999 -46.61672,78.148088c-49.743832,75.328334 -96.433117,152.147878 -116.880887,257.412848z" stroke-width="37" stroke-miterlimit="10" fill-rule="evenodd" clip-rule="evenodd" id="svg_2"/>
  <path stroke="null" filter="url(#svg_3_blur)" d="m358.378984,662.765178c40.344324,-37.053739 64.780119,-72.341701 82.507494,-107.445733c13.148303,-26.042177 21.624658,-51.860537 32.786431,-77.884305c3.727762,-8.687859 8.73999,-17.342004 13.034879,-26.149427c8.589779,-17.611818 22.27456,-36.216843 51.817615,-54.598105c28.86557,-17.961258 59.457032,-28.741705 89.386351,-35.161343c49.221073,-10.558499 105.542016,-11.434334 154.073295,4.780175c39.684,13.256809 62.746477,34.783347 71.667287,54.83227c7.289974,16.382512 6.56953,33.163532 -0.318833,49.999707c-7.191853,17.571962 -21.327229,35.582282 -49.389619,54.380439c-14.377646,9.632088 -30.318695,17.271541 -44.883262,22.952045c-14.742429,5.751043 -29.613555,9.31632 -44.552188,13.5867c-29.159857,8.335311 -58.987991,14.454246 -88.868289,20.563938c-89.000088,18.19118 -176.960972,38.111391 -267.261162,80.143642l0,-0.000003z" fill-rule="evenodd" clip-rule="evenodd" opacity="0.25" id="svg_3"/>
  <circle stroke="null" r="79.333008" cy="225.046999" cx="358.54601" fill-rule="evenodd" fill="#ffffff" clip-rule="evenodd" id="svg_4"/>
 </g>
</svg>