<svg width="30.999999999999996" height="50" xmlns="http://www.w3.org/2000/svg">
 <title>red pin</title>

 <g>
  <title>background</title>
  <rect x="-1" y="-1" width="33" height="52" id="canvas_background" fill="none"/>
 </g>
 <g>
  <title>Layer 1</title>
  <path id="svg_2" clip-rule="evenodd" fill-rule="evenodd" stroke-miterlimit="10" stroke-width="37" d="m15.58582,49.634937c-1.132398,-5.558877 -3.128979,-10.185043 -5.54728,-14.472359c-1.793767,-3.180214 -3.871758,-6.11564 -5.794434,-9.199749c-0.641827,-1.029487 -1.195728,-2.117105 -1.812462,-3.18556c-1.233177,-2.136414 -2.233015,-4.613458 -2.169481,-7.826594c0.062074,-3.139407 0.970043,-5.657727 2.279343,-7.716761c2.153415,-3.386591 5.760463,-6.163225 10.600249,-6.892919c3.957114,-0.596608 7.667188,0.411351 10.298177,1.949784c2.149822,1.257189 3.814856,2.936506 5.08028,4.915648c1.320926,2.065694 2.230561,4.506107 2.306801,7.689301c0.039146,1.630857 -0.227844,3.141131 -0.604084,4.393879c-0.380622,1.268026 -0.992886,2.327981 -1.537674,3.460174c-1.063578,2.210084 -2.396774,4.235145 -3.734934,6.261228c-3.985478,6.035309 -7.726226,12.190095 -9.364502,20.623929l0.000001,-0.000001z" fill="#cc0000" stroke="null"/>
  <circle id="svg_4" clip-rule="evenodd" fill="#ffffff" fill-rule="evenodd" cx="15.546542" cy="15.547039" r="6.833018" stroke="null"/>
 </g>
</svg>